<svg width="160" height="25" viewBox="0 0 160 25" fill="none" xmlns="http://www.w3.org/2000/svg">
<path d="M38.0094 23.8846C35.0404 23.8846 31.3365 23.0468 29.3669 20.8127C27.4267 18.5492 26.4567 15.8007 26.4567 12.5671V4.85053C26.4567 4.14502 26.4714 3.63058 26.5008 3.30722C26.5596 2.98386 26.6918 2.60171 26.8976 2.16076C27.3092 1.36706 28.4556 0.970215 30.337 0.970215C32.3947 0.970215 33.6 1.52874 33.9527 2.6458C34.1291 3.11614 34.2173 3.86575 34.2173 4.89462V12.6112C34.2173 13.8164 34.5553 14.7571 35.2315 15.4332C35.937 16.1093 36.863 16.4474 38.0094 16.4474C39.1853 16.4474 40.126 16.0946 40.8315 15.3891C41.5664 14.6836 41.9338 13.7576 41.9338 12.6112V4.80643C41.9338 4.13032 41.9485 3.63058 41.9779 3.30722C42.0367 2.95446 42.1837 2.55761 42.4189 2.11667C42.801 1.35237 43.9328 0.970215 45.8141 0.970215C47.6661 0.970215 48.7979 1.36706 49.2094 2.16076C49.4152 2.60171 49.5328 2.99856 49.5622 3.35131C49.621 3.67467 49.6504 4.17441 49.6504 4.85053V12.6112C49.6504 15.9844 48.5458 18.7917 46.5248 20.8127C44.5038 22.8337 40.7216 23.7962 38.0094 23.8846Z" fill="white"/>
<path d="M17.1968 12.6112L22.0913 17.5498C23.1496 18.6081 23.6787 19.5194 23.6787 20.2837C23.6787 21.0186 23.1496 21.9152 22.0913 22.9734C21.0331 24.0023 20.1365 24.5167 19.4016 24.5167C18.6667 24.5167 17.7701 23.9876 16.7118 22.9293L11.8614 18.0348L6.96693 22.9293C5.90866 23.9876 5.01207 24.5167 4.27716 24.5167C3.57165 24.5167 2.67506 24.0023 1.5874 22.9734C0.529134 21.9152 0 21.0186 0 20.2837C0 19.5194 0.529134 18.6081 1.5874 17.5498L6.48189 12.6112L1.5874 7.67264C0.529134 6.61437 0 5.71779 0 4.98288C0 4.21857 0.529134 3.30729 1.5874 2.24902C2.67506 1.19076 3.57165 0.661621 4.27716 0.661621C5.01207 0.661621 5.90866 1.19076 6.96693 2.24902L11.8614 7.1876L16.7118 2.24902C17.7701 1.19076 18.6667 0.661621 19.4016 0.661621C20.1365 0.661621 21.0331 1.19076 22.0913 2.24902C23.1496 3.30729 23.6787 4.21857 23.6787 4.98288C23.6787 5.71779 23.1496 6.61437 22.0913 7.67264L17.1968 12.6112Z" fill="white"/>
<path fill-rule="evenodd" clip-rule="evenodd" d="M69.8056 3.22108C67.9535 1.58699 65.6461 0.918457 63.0845 0.918457C60.1301 0.918457 57.6924 2.02082 55.6714 4.04181C53.6504 6.06281 52.5459 8.87015 52.5459 12.2434L52.5459 20.004C52.5459 20.6801 52.5753 21.1799 52.6341 21.5032C52.6635 21.856 52.7811 22.2528 52.9868 22.6938C53.3984 23.4875 54.5301 23.8843 56.3821 23.8843C58.2635 23.8843 59.3952 23.5022 59.7774 22.7379C60.0126 22.2969 60.1595 21.9001 60.2183 21.5473C60.2477 21.224 60.2624 20.7242 60.2624 20.0481L60.2624 12.2434C60.2624 11.0969 60.6299 10.1709 61.3648 9.46543C62.0577 8.77257 62.9348 8.77432 63.0774 8.77461C63.08 8.77461 63.0824 8.77462 63.0845 8.77462C63.0884 8.77462 63.0931 8.77458 63.0987 8.77455C63.2588 8.77344 64.0781 8.76779 64.7601 9.42134C65.4349 10.0961 65.7729 11.0345 65.7742 12.2363C65.7742 12.2387 65.7742 12.241 65.7742 12.2434L65.7742 20.004C65.7742 20.6801 65.8036 21.1799 65.8624 21.5032C65.8918 21.856 66.0094 22.2528 66.2152 22.6938C66.6267 23.4875 67.7585 23.8843 69.6105 23.8843C69.618 23.8843 69.6255 23.8843 69.6331 23.8843C69.6402 23.8843 69.6474 23.8843 69.6545 23.8843C71.5359 23.8843 72.6824 23.4875 73.0939 22.6938C73.2997 22.2528 73.432 21.8707 73.4908 21.5473C73.5202 21.224 73.5349 20.7095 73.5349 20.004L73.5349 12.2875C73.5349 12.0812 73.5309 11.8768 73.523 11.6745C73.6272 10.7866 73.9839 10.0503 74.5931 9.46543C75.286 8.77257 76.1631 8.77432 76.3057 8.77461C76.3083 8.77461 76.3107 8.77462 76.3128 8.77462C76.3167 8.77462 76.3215 8.77458 76.327 8.77455C76.4871 8.77344 77.3064 8.76779 77.9884 9.42134C78.6645 10.0975 79.0026 11.0381 79.0026 12.2434L79.0026 19.9599C79.0026 20.9888 79.0908 21.7384 79.2671 22.2087C79.6199 23.3258 80.8251 23.8843 82.8829 23.8843C84.7643 23.8843 85.9107 23.4875 86.3223 22.6938C86.528 22.2528 86.6603 21.8707 86.7191 21.5473C86.7485 21.224 86.7632 20.7095 86.7632 20.004V12.2875C86.7632 9.05389 85.7931 6.30533 83.853 4.04181C81.8834 1.80769 79.2671 0.918457 76.3128 0.918457C73.7869 0.918457 71.6387 1.72427 69.8056 3.22108Z" fill="white"/>
<path fill-rule="evenodd" clip-rule="evenodd" d="M106.551 3.22108C104.699 1.58699 102.391 0.918457 99.8299 0.918457C96.8755 0.918457 94.4378 2.02082 92.4168 4.04181C90.3958 6.06281 89.2913 8.87015 89.2913 12.2434L89.2913 20.004C89.2913 20.6801 89.3207 21.1799 89.3795 21.5032C89.4089 21.856 89.5265 22.2528 89.7322 22.6938C90.1438 23.4875 91.2755 23.8843 93.1275 23.8843C95.0089 23.8843 96.1406 23.5022 96.5228 22.7379C96.758 22.2969 96.9049 21.9001 96.9637 21.5473C96.9931 21.224 97.0078 20.7242 97.0078 20.0481L97.0078 12.2434C97.0078 11.0969 97.3753 10.1709 98.1102 9.46543C98.8031 8.77257 99.6802 8.77432 99.8228 8.77461C99.8254 8.77461 99.8278 8.77462 99.8299 8.77462C99.8338 8.77462 99.8385 8.77458 99.8441 8.77455C100.004 8.77344 100.823 8.76779 101.505 9.42134C102.182 10.0975 102.52 11.0381 102.52 12.2434L102.52 20.004C102.52 20.6801 102.549 21.1799 102.608 21.5032C102.637 21.856 102.755 22.2528 102.961 22.6938C103.372 23.4875 104.504 23.8843 106.356 23.8843C106.363 23.8843 106.371 23.8843 106.378 23.8843C106.386 23.8843 106.393 23.8843 106.4 23.8843C108.281 23.8843 109.428 23.4875 109.839 22.6938C110.045 22.2528 110.177 21.8707 110.236 21.5473C110.266 21.224 110.28 20.7095 110.28 20.004L110.28 12.2875C110.28 12.0812 110.276 11.8768 110.268 11.6744C110.373 10.7866 110.729 10.0503 111.339 9.46543C112.031 8.77257 112.909 8.77432 113.051 8.77461C113.054 8.77461 113.056 8.77462 113.058 8.77462C113.062 8.77462 113.067 8.77458 113.072 8.77455C113.233 8.77344 114.052 8.76779 114.734 9.42134C115.41 10.0975 115.748 11.0381 115.748 12.2434V19.9599C115.748 20.9888 115.836 21.7384 116.013 22.2087C116.365 23.3258 117.571 23.8843 119.628 23.8843C121.51 23.8843 122.656 23.4875 123.068 22.6938C123.273 22.2528 123.406 21.8707 123.464 21.5473C123.494 21.224 123.509 20.7095 123.509 20.004V12.2875C123.509 9.05389 122.539 6.30533 120.598 4.04181C118.629 1.80769 116.013 0.918457 113.058 0.918457C110.532 0.918457 108.384 1.72427 106.551 3.22108Z" fill="white"/>
<path fill-rule="evenodd" clip-rule="evenodd" d="M157.109 1.39948C158.776 2.91402 158.9 5.4932 157.385 7.16022L143.576 22.3606C142.814 23.199 141.738 23.6828 140.605 23.6961C139.472 23.7094 138.385 23.251 137.604 22.4308L130.189 14.6452C128.636 13.0142 128.699 10.4329 130.33 8.87956C131.961 7.32624 134.542 7.38919 136.095 9.02015L140.487 13.6311L151.349 1.67557C152.863 0.00854621 155.442 -0.115066 157.109 1.39948Z" fill="#F2F2F2"/>
</svg>
